<?xml version="1.0" encoding="UTF-8"?>
<svg xmlns="http://www.w3.org/2000/svg" xmlns:xlink="http://www.w3.org/1999/xlink" width="800pt" height="400pt" viewBox="0 0 800 400" version="1.1">
<g id="surface1">
<path style=" stroke:none;fill-rule:nonzero;fill:rgb(89.019608%,20.392157%,30.588235%);fill-opacity:1;" d="M 663.761719 347.621094 L 663.761719 354.777344 L 670.839844 354.777344 L 670.839844 361.917969 L 677.921875 361.917969 L 677.921875 369.074219 L 685.003906 369.074219 L 685.003906 376.230469 L 677.921875 376.230469 L 677.921875 383.394531 L 670.839844 383.394531 L 670.839844 390.550781 L 663.761719 390.550781 L 663.761719 397.707031 L 649.601562 397.707031 L 649.601562 390.5625 L 656.679688 390.5625 L 656.679688 383.40625 L 663.761719 383.40625 L 663.761719 376.246094 L 670.839844 376.246094 L 670.839844 369.089844 L 663.761719 369.089844 L 663.761719 361.917969 L 656.679688 361.917969 L 656.679688 354.777344 L 649.601562 354.777344 L 649.601562 347.621094 Z M 663.761719 347.621094 "/>
<path style=" stroke:none;fill-rule:nonzero;fill:rgb(89.019608%,20.392157%,30.588235%);fill-opacity:1;" d="M 641.101562 348.253906 L 628.769531 348.253906 L 628.769531 355.15625 L 621.800781 355.15625 L 621.800781 362.1875 L 615.195312 362.1875 L 615.195312 369.097656 L 608.230469 369.097656 L 608.230469 376.121094 L 601.628906 376.121094 L 601.628906 383.03125 L 594.664062 383.03125 L 594.664062 390.0625 L 588.0625 390.0625 L 588.0625 397.089844 L 600.398438 397.089844 L 600.398438 390.0625 L 606.996094 390.0625 L 606.996094 383.152344 L 613.972656 383.152344 L 613.972656 376.121094 L 620.5625 376.121094 L 620.5625 369.21875 L 627.535156 369.21875 L 627.535156 362.1875 L 634.128906 362.1875 L 634.128906 355.277344 L 641.101562 355.277344 Z M 641.101562 348.253906 "/>
<path style=" stroke:none;fill-rule:nonzero;fill:rgb(89.019608%,20.392157%,30.588235%);fill-opacity:1;" d="M 512.148438 397.71875 L 512.148438 390.5625 L 505.066406 390.5625 L 505.066406 383.40625 L 497.984375 383.40625 L 497.984375 376.246094 L 490.90625 376.246094 L 490.90625 369.089844 L 497.984375 369.089844 L 497.984375 361.917969 L 505.066406 361.917969 L 505.066406 354.777344 L 512.148438 354.777344 L 512.148438 347.621094 L 526.308594 347.621094 L 526.308594 354.777344 L 519.226562 354.777344 L 519.226562 361.917969 L 512.148438 361.917969 L 512.148438 369.074219 L 505.066406 369.074219 L 505.066406 376.230469 L 512.148438 376.230469 L 512.148438 383.394531 L 519.226562 383.394531 L 519.226562 390.550781 L 526.308594 390.550781 L 526.308594 397.707031 Z M 512.148438 397.71875 "/>
<path style=" stroke:none;fill-rule:nonzero;fill:rgb(89.019608%,20.392157%,30.588235%);fill-opacity:1;" d="M 691.4375 0 L 48.125 121.679688 L 0.230469 273.15625 L 108.570312 393.597656 L 534.707031 313.035156 L 558.480469 400 L 666.707031 288.078125 L 751.875 271.976562 L 799.769531 120.441406 Z M 691.4375 0 "/>
<path style=" stroke:none;fill-rule:nonzero;fill:rgb(100%,100%,100%);fill-opacity:1;" d="M 86.894531 239.359375 L 86.894531 225.296875 L 73.441406 225.296875 L 73.441406 211.230469 L 101.84375 211.230469 L 102.550781 225.296875 L 139.933594 225.296875 L 139.933594 197.140625 L 86.894531 197.140625 L 86.894531 183.101562 L 74.152344 183.101562 L 74.152344 154.945312 L 86.894531 154.945312 L 86.894531 140.914062 L 156.375 140.914062 L 156.375 154.980469 L 169.121094 154.980469 L 169.121094 169.042969 L 140.726562 169.042969 L 140.726562 154.980469 L 102.578125 154.980469 L 102.578125 183.136719 L 156.390625 183.136719 L 156.390625 197.167969 L 169.136719 197.167969 L 169.136719 225.324219 L 156.390625 225.324219 L 156.390625 239.390625 Z M 86.894531 239.359375 "/>
<path style=" stroke:none;fill-rule:nonzero;fill:rgb(100%,100%,100%);fill-opacity:1;" d="M 303.378906 239.359375 L 303.378906 169.042969 L 313.347656 169.042969 L 313.347656 154.980469 L 327.851562 154.980469 L 327.851562 140.914062 L 371.351562 140.914062 L 371.351562 154.980469 L 385.847656 154.980469 L 385.847656 169.042969 L 395.824219 169.042969 L 395.824219 239.359375 L 371.351562 239.359375 L 371.351562 211.203125 L 327.851562 211.203125 L 327.851562 239.359375 Z M 327.851562 197.167969 L 371.351562 197.167969 L 371.351562 169.011719 L 356.851562 169.011719 L 356.851562 154.980469 L 342.351562 154.980469 L 342.351562 169.042969 L 327.851562 169.042969 Z M 327.851562 197.167969 "/>
<path style=" stroke:none;fill-rule:nonzero;fill:rgb(100%,100%,100%);fill-opacity:1;" d="M 638.109375 239.359375 L 638.109375 169.042969 L 648.089844 169.042969 L 648.089844 154.980469 L 662.585938 154.980469 L 662.585938 140.914062 L 706.082031 140.914062 L 706.082031 154.980469 L 720.582031 154.980469 L 720.582031 169.042969 L 730.550781 169.042969 L 730.550781 239.359375 L 706.082031 239.359375 L 706.082031 211.203125 L 662.578125 211.203125 L 662.578125 239.359375 Z M 662.578125 197.167969 L 706.082031 197.167969 L 706.082031 169.011719 L 691.578125 169.011719 L 691.578125 154.980469 L 677.121094 154.980469 L 677.121094 169.042969 L 662.578125 169.042969 Z M 662.578125 197.167969 "/>
<path style=" stroke:none;fill-rule:nonzero;fill:rgb(100%,100%,100%);fill-opacity:1;" d="M 564.632812 239.359375 L 564.632812 154.980469 L 534.097656 154.980469 L 534.097656 140.914062 L 621.101562 140.914062 L 621.101562 154.980469 L 591.363281 154.980469 L 591.363281 239.359375 Z M 564.632812 239.359375 "/>
<path style=" stroke:none;fill-rule:nonzero;fill:rgb(100%,100%,100%);fill-opacity:1;" d="M 273.535156 154.980469 L 273.535156 140.914062 L 205.089844 140.914062 L 205.089844 155.101562 L 194.757812 155.101562 L 194.757812 239.359375 L 217.699219 239.359375 L 217.699219 196.949219 L 273.535156 196.949219 L 273.535156 182.882812 L 282.34375 182.882812 L 282.34375 154.980469 Z M 259.800781 182.882812 L 217.699219 182.882812 L 217.699219 154.980469 L 259.765625 154.980469 Z M 259.800781 182.882812 "/>
<path style=" stroke:none;fill-rule:nonzero;fill:rgb(100%,100%,100%);fill-opacity:1;" d="M 504.230469 225.296875 L 504.230469 211.230469 L 489.730469 211.230469 L 489.730469 194.96875 L 503.375 194.96875 L 503.375 182.78125 L 514.199219 182.78125 L 514.199219 154.980469 L 504.230469 154.980469 L 504.230469 140.914062 L 434.417969 140.914062 L 434.417969 155.101562 L 423.988281 155.101562 L 423.988281 239.359375 L 447.714844 239.359375 L 447.714844 197.175781 L 464.417969 197.175781 L 464.417969 212.894531 L 476.714844 212.894531 L 476.714844 225.1875 L 489.84375 225.1875 L 489.75 239.359375 L 518.746094 239.359375 L 518.746094 225.296875 Z M 447.714844 183.117188 L 447.714844 154.960938 L 489.75 154.960938 L 489.75 169.03125 L 489.84375 183.09375 Z M 447.714844 183.117188 "/>
</g>
</svg>
